<svg width="40" height="40" viewBox="0 0 40 40" fill="none" xmlns="http://www.w3.org/2000/svg">
<path fill-rule="evenodd" clip-rule="evenodd" d="M3 20C3 15.5477 6.54772 12 11 12C13.328 12 15.1826 13.03 16.7368 14.449C17.9361 15.544 19.001 16.9131 20 18.2862C20.999 16.9131 22.0639 15.544 23.2632 14.449C24.8174 13.03 26.672 12 29 12C33.4523 12 37 15.5477 37 20C37 24.4523 33.4523 28 29 28C26.672 28 24.8174 26.97 23.2632 25.551C22.0639 24.456 20.999 23.0869 20 21.7138C19.001 23.0869 17.9361 24.456 16.7368 25.551C15.1826 26.97 13.328 28 11 28C6.54772 28 3 24.4523 3 20ZM18.7703 20C17.6572 18.45 16.5846 17.0183 15.3882 15.926C14.0674 14.72 12.672 14 11 14C7.65228 14 5 16.6523 5 20C5 23.3477 7.65228 26 11 26C12.672 26 14.0674 25.28 15.3882 24.074C16.5846 22.9817 17.6572 21.55 18.7703 20ZM21.2297 20C22.3428 21.55 23.4154 22.9817 24.6118 24.074C25.9326 25.28 27.328 26 29 26C32.3477 26 35 23.3477 35 20C35 16.6523 32.3477 14 29 14C27.328 14 25.9326 14.72 24.6118 15.926C23.4154 17.0183 22.3428 18.45 21.2297 20Z" fill="url(#paint_unl_linear)"/>
<defs>
<linearGradient id="paint_unl_linear" x1="37" y1="28" x2="3" y2="12" gradientUnits="userSpaceOnUse">
<stop stop-color="#FF6400"/>
<stop offset="1" stop-color="#FFC39C"/>
</linearGradient>
</defs>
</svg>
