<svg width="60" height="60" viewBox="0 0 60 60" fill="none" xmlns="http://www.w3.org/2000/svg">
<path d="M30 50C41.0457 50 50 41.0457 50 30C50 18.9543 41.0457 10 30 10C18.9543 10 10 18.9543 10 30C10 41.0457 18.9543 50 30 50Z" fill="url(#paint0_radial)"/>
<path opacity="0.2" d="M12.7667 23.8332C14.1 24.0332 15.4 24.3665 16.7333 24.7665C18.0333 25.1665 19.3333 25.6332 20.6333 26.1332C23.1333 27.0998 25.5667 28.2332 28.0333 29.3332L28.4333 29.1665C26 27.7998 23.5333 26.4998 21.0333 25.2998C18.4333 24.0998 15.8333 22.9998 13 22.3998C12.5333 22.2998 12.0667 22.2332 11.5667 22.1665C11.3667 22.6665 11.1667 23.1332 11 23.6665C11.6 23.6665 12.1667 23.7332 12.7667 23.8332Z" fill="#FF6400"/>
<path opacity="0.2" d="M46.8336 36.1001C45.5003 35.8667 44.167 35.5334 42.867 35.1334C41.567 34.7334 40.2336 34.3001 38.967 33.8001C36.5003 32.8667 34.1003 31.8334 31.7003 30.7334L31.3003 31.0001C33.667 32.3334 36.1003 33.5667 38.567 34.7001C41.1336 35.8334 43.7336 36.9001 46.5336 37.5334C47.1336 37.6667 47.7336 37.7667 48.367 37.8667C48.567 37.3667 48.767 36.8667 48.9336 36.3667C48.267 36.3001 47.5336 36.2334 46.8336 36.1001Z" fill="#FF6400"/>
<path d="M59.9334 29.3244C59.9334 29.2259 59.9334 29.1273 59.9001 29.0288L59.8334 28.7331C59.8001 28.536 59.7668 28.3389 59.7335 28.1418C59.6002 27.7477 59.5003 27.3535 59.3337 26.9921C59.0006 26.2366 58.5341 25.5796 57.9678 24.9884C56.8684 23.8387 55.4692 23.0174 54.0366 22.4919C52.6041 21.9663 51.0716 21.7363 49.5725 21.6706C48.0733 21.6378 46.5741 21.802 45.1416 22.0977C43.709 22.3933 42.3098 22.7875 40.9439 23.2802C39.578 23.773 38.2787 24.2985 36.9795 24.8898C34.4142 26.0395 31.9156 27.3535 29.4836 28.6346C27.0516 29.9157 24.6197 31.2296 22.1544 32.3793C20.9217 32.9378 19.6891 33.529 18.4564 33.9889C17.2238 34.4817 15.9578 34.9087 14.6585 35.2372C13.3926 35.5657 12.0933 35.7628 10.8273 35.7956C9.56135 35.8285 8.29539 35.6971 7.09606 35.3357C5.93004 34.9744 4.79733 34.416 3.96446 33.6276C3.76458 33.4305 3.53137 33.2334 3.3648 33.0035C3.26485 32.9049 3.16491 32.7735 3.09828 32.675L2.86508 32.3136C2.79845 32.1822 2.73182 32.0508 2.66519 31.9195L2.49861 31.5253L2.36535 31.0982C2.33204 30.9668 2.26541 30.8354 2.26541 30.6712C2.19878 30.3756 2.13215 30.1128 2.13215 29.7843L2.09883 29.3244L2.13215 28.9302C2.19878 28.4046 2.36535 27.8791 2.59856 27.3535C2.86507 26.8607 3.23154 26.4009 3.66463 25.9738C3.89783 25.7767 4.09772 25.5796 4.36424 25.4154C4.59745 25.2183 4.86396 25.0869 5.13048 24.9227C6.22987 24.2985 7.46252 23.9701 8.7618 23.8058C9.49472 23.7073 10.2277 23.7073 10.9606 23.7401C11.1272 23.2474 11.327 22.7547 11.5269 22.2619H11.4603C9.06163 21.9663 6.52971 22.2291 4.2643 23.3459C3.56469 23.6744 2.9317 24.1015 2.33204 24.5942C1.76569 25.1198 1.19933 25.711 0.799556 26.4009C0.399778 27.0907 0.0999445 27.8791 0 28.7003L0 29.3573L0.0333148 29.9485C0.0333148 30.3427 0.0999445 30.7369 0.166574 31.0982C0.433093 32.6421 1.26596 34.1203 2.36535 35.27C3.49806 36.3869 4.93059 37.1424 6.39645 37.6351C9.32815 38.6206 12.4597 38.4564 15.2915 37.7994C18.1566 37.1424 20.8218 36.0912 23.387 34.9087C25.9522 33.7261 28.4175 32.445 30.8828 31.1639C33.3148 29.8828 35.7468 28.5689 38.2121 27.452C40.6774 26.3352 43.176 25.284 45.7413 24.7256C47.0072 24.4299 48.3065 24.2657 49.5725 24.2657C50.8384 24.2657 52.1044 24.4628 53.2704 24.8241C54.4364 25.1855 55.5025 25.8096 56.3354 26.6308C56.7351 27.0578 57.1016 27.4849 57.3348 28.0105C57.4681 28.2404 57.5347 28.536 57.6346 28.7988L57.7346 29.193L57.7679 29.3901C57.7679 29.4558 57.7679 29.5215 57.8012 29.5872L57.8345 30.0142C57.8345 30.1456 57.8345 30.3099 57.8345 30.4413C57.8345 30.7369 57.7679 30.9997 57.7346 31.2953C57.6013 31.8538 57.4014 32.4122 57.1016 32.9049C56.8018 33.3976 56.4353 33.8575 55.9689 34.2517L55.8023 34.416L55.6358 34.5474L55.2693 34.8101L54.8695 35.0401L54.6696 35.1715L54.4697 35.27C53.3703 35.8285 52.1044 36.1569 50.8051 36.2555C50.2054 36.3212 49.5725 36.3212 48.9728 36.2883C48.8062 36.7811 48.6063 37.2738 48.4064 37.7665C50.6718 38.0293 53.0705 37.8651 55.2693 36.9125L55.5358 36.8139L55.8023 36.6825L56.3021 36.4197L56.8018 36.0912L57.035 35.927L57.2682 35.7299C57.9012 35.2372 58.4009 34.6459 58.8673 33.9889C59.3004 33.3319 59.6002 32.5764 59.8001 31.8209C59.8667 31.4267 59.9667 31.0325 59.9667 30.6384C59.9667 30.4413 60 30.2442 60 30.0471L59.9334 29.3244Z" fill="url(#paint1_linear)"/>
<defs>
<radialGradient id="paint0_radial" cx="0" cy="0" r="1" gradientUnits="userSpaceOnUse" gradientTransform="translate(23 21.5) rotate(51.9112) scale(31.3404)">
<stop stop-color="#FFF0E6"/>
<stop offset="0.8623" stop-color="#FFC39C"/>
<stop offset="1" stop-color="#FFD1B3"/>
</radialGradient>
<linearGradient id="paint1_linear" x1="-4.47035e-07" y1="29.9998" x2="60" y2="29.9998" gradientUnits="userSpaceOnUse">
<stop stop-color="#FF6400" stop-opacity="0.4"/>
<stop offset="0.494792" stop-color="#FF6400"/>
<stop offset="1" stop-color="#FF6400" stop-opacity="0.4"/>
</linearGradient>
</defs>
</svg>
